<?xml version="1.0" standalone="no"?>
<!DOCTYPE svg PUBLIC "-//W3C//DTD SVG 20010904//EN"
 "http://www.w3.org/TR/2001/REC-SVG-20010904/DTD/svg10.dtd">
<svg version="1.0" xmlns="http://www.w3.org/2000/svg"
 width="512.000000pt" height="512.000000pt" viewBox="0 0 512.000000 512.000000"
 preserveAspectRatio="xMidYMid meet">
<metadata>
Created by potrace 1.14, written by Peter Selinger 2001-2017
</metadata>
<g transform="translate(0.000000,512.000000) scale(0.100000,-0.100000)"
fill="#000000" stroke="none">
<path d="M2379 5116 c-2 -2 -35 -6 -74 -10 -38 -3 -97 -10 -130 -16 -33 -6
-76 -13 -95 -16 -106 -17 -413 -105 -434 -125 -6 -5 -16 -9 -23 -9 -17 0 -114
-44 -244 -110 -323 -164 -645 -437 -870 -740 -95 -128 -135 -193 -231 -370
-122 -226 -219 -542 -259 -845 -14 -108 -18 -443 -7 -565 21 -217 83 -474 165
-685 38 -96 149 -325 180 -372 11 -15 45 -68 77 -116 153 -231 366 -455 600
-631 339 -254 771 -430 1181 -481 28 -4 77 -10 110 -15 60 -7 468 -5 515 4 14
2 48 7 75 11 90 12 282 53 352 75 37 12 75 23 83 25 64 14 215 77 362 151 619
309 1088 866 1297 1540 17 55 34 111 36 125 3 13 7 35 10 49 3 14 7 35 10 48
2 13 6 31 9 40 9 27 19 101 33 227 10 91 10 409 1 505 -9 85 -22 172 -37 245
-6 28 -13 61 -15 75 -3 14 -15 61 -27 105 -198 733 -726 1347 -1435 1667 -77
35 -294 114 -338 122 -11 3 -59 14 -106 26 -47 12 -96 24 -110 26 -14 2 -38 6
-55 9 -16 3 -50 8 -75 11 -25 3 -56 8 -70 10 -28 6 -456 15 -461 10z"/>
</g>
</svg>
